<?xml version="1.0" standalone="no"?><!DOCTYPE svg PUBLIC "-//W3C//DTD SVG 1.1//EN" "http://www.w3.org/Graphics/SVG/1.1/DTD/svg11.dtd"><svg t="1766923041226" class="icon" viewBox="0 0 1036 1024" version="1.1" xmlns="http://www.w3.org/2000/svg" p-id="2886" width="32.375" height="32" xmlns:xlink="http://www.w3.org/1999/xlink"><path d="M897.457977 1023.999551a52.501292 52.501292 0 0 1-37.244506-15.705514L219.428475 367.95777a52.950021 52.950021 0 0 1 0-74.937741l86.155966-86.155965a54.296208 54.296208 0 0 1 74.937741 0l640.336266 640.784995a52.950021 52.950021 0 0 1 0 74.937741l-86.155965 86.155966a52.501292 52.501292 0 0 1-37.244506 15.256785zM277.314515 330.713264L897.457977 950.407997l65.963161-65.963161L342.828947 264.750103z" fill="#ffffff" p-id="2887"></path><path d="M427.593853 528.916858l113.259197-113.259196 47.610145 47.565273-113.259196 113.304069z" fill="#ffffff" p-id="2888"></path><path d="M653.826173 171.574549m-21.893652 21.893653l-69.17125 69.17125q-21.893652 21.893652-43.787305 0l-0.951898-0.951898q-21.893652-21.893652 0-43.787305l69.17125-69.17125q21.893652-21.893652 43.787305 0l0.951898 0.951898q21.893652 21.893652 0 43.787305Z" fill="#ffffff" p-id="2889"></path><path d="M137.959304 80.536469m21.893653 21.893652l69.171249 69.17125q21.893652 21.893652 0 43.787305l-0.951898 0.951898q-21.893652 21.893652-43.787304 0l-69.17125-69.17125q-21.893652-21.893652 0-43.787305l0.951898-0.951898q21.893652-21.893652 43.787305 0Z" fill="#ffffff" p-id="2890"></path><path d="M0 319.046311m30.9623 0l97.82292 0q30.9623 0 30.9623 30.9623l0 1.346187q0 30.9623-30.9623 30.9623l-97.82292 0q-30.9623 0-30.9623-30.9623l0-1.346187q0-30.9623 30.9623-30.9623Z" fill="#ffffff" p-id="2891"></path><path d="M389.945491 0m0 30.9623l0 97.82292q0 30.9623-30.9623 30.9623l-1.346187 0q-30.9623 0-30.962301-30.9623l0-97.82292q0-30.9623 30.962301-30.9623l1.346187 0q30.9623 0 30.9623 30.9623Z" fill="#ffffff" p-id="2892"></path><path d="M291.514689 533.680256m-21.893652 21.893652l-69.17125 69.17125q-21.893652 21.893652-43.787305 0l-0.951898-0.951898q-21.893652-21.893652 0-43.787305l69.17125-69.171249q21.893652-21.893652 43.787305 0l0.951898 0.951898q21.893652 21.893652 0 43.787304Z" fill="#ffffff" p-id="2893"></path></svg>